<?xml version="1.0" encoding="UTF-8" standalone="no"?>
<!-- Created with Inkscape (http://www.inkscape.org/) -->

<svg
   width="195.66595mm"
   height="167.12933mm"
   viewBox="0 0 195.66595 167.12933"
   version="1.1"
   id="svg1"
   inkscape:version="1.3 (0e150ed6c4, 2023-07-21)"
   sodipodi:docname="logo.svg"
   inkscape:export-filename="logo.png"
   inkscape:export-xdpi="123.84063"
   inkscape:export-ydpi="123.84063"
   xmlns:inkscape="http://www.inkscape.org/namespaces/inkscape"
   xmlns:sodipodi="http://sodipodi.sourceforge.net/DTD/sodipodi-0.dtd"
   xmlns="http://www.w3.org/2000/svg"
   xmlns:svg="http://www.w3.org/2000/svg">
  <sodipodi:namedview
     id="namedview1"
     pagecolor="#ffffff"
     bordercolor="#000000"
     borderopacity="0.25"
     inkscape:showpageshadow="2"
     inkscape:pageopacity="0.0"
     inkscape:pagecheckerboard="0"
     inkscape:deskcolor="#d1d1d1"
     inkscape:document-units="mm"
     showgrid="true"
     inkscape:zoom="1.4142136"
     inkscape:cx="106.41957"
     inkscape:cy="172.8876"
     inkscape:window-width="3840"
     inkscape:window-height="2054"
     inkscape:window-x="-11"
     inkscape:window-y="-11"
     inkscape:window-maximized="1"
     inkscape:current-layer="layer1">
    <inkscape:grid
       id="grid1"
       units="mm"
       originx="-37.794159"
       originy="-143.13234"
       spacingx="0.99999998"
       spacingy="1"
       empcolor="#0099e5"
       empopacity="0.30196078"
       color="#0099e5"
       opacity="0.14901961"
       empspacing="5"
       dotted="false"
       gridanglex="30"
       gridanglez="30"
       visible="true" />
  </sodipodi:namedview>
  <defs
     id="defs1" />
  <g
     inkscape:label="Logo"
     inkscape:groupmode="layer"
     id="layer1"
     transform="translate(-9.9997044,-37.870432)"
     style="fill:#000000;fill-opacity:1">
    <path
       id="path2-7-1"
       style="fill:#000000;fill-opacity:0.87;stroke-width:32.4791"
       d="m 187.48499,37.870432 -21.21317,21.213175 3.5357,3.535185 a 19.999835,19.99996 45 0 1 0,28.284578 19.999835,19.99996 45 0 1 -28.28458,0 l -21.21317,-21.213175 -0.003,0.0021 A 49.999609,49.999581 89.99988 0 0 84.999778,54.999619 74.999369,74.999404 0 0 0 9.9997044,129.99969 74.999369,74.999404 0 0 0 84.999778,204.99977 v -5.00022 A 69.999408,69.999452 0 0 1 14.999399,129.99969 69.999408,69.999452 0 0 1 84.999778,59.99983 44.999651,44.999624 89.99988 0 1 116.77613,73.223312 l -0.002,0.0026 21.21317,21.213176 a 24.999794,24.999806 45 0 0 35.35547,0 24.999794,24.999806 45 0 0 0,-35.355465 l 14.14228,-14.142289 a 44.999624,44.999651 45 0 1 0,63.639526 h -5.1e-4 l -11.50059,11.50059 -9.71259,9.71259 -11.50059,11.50059 -12.45298,12.45299 v 5.1e-4 c -4.68814,4.68827 -7.31781,11.04685 -7.3179,17.67696 v 28.575 h -19.99982 a 24.999806,24.999794 0.00106026 0 0 -24.999504,-25.00002 24.999806,24.999794 0.00106026 0 0 -5.17e-4,0 H 85.000294 A 44.999624,44.999651 0 0 1 40.000457,130.00021 44.999624,44.999651 0 0 1 85.000294,85.000371 V 80.00016 a 49.999581,49.999609 0 0 0 -50.000048,50.00005 49.999581,49.999609 0 0 0 50.000048,50.00005 v 24.99951 h 4.999695 v -25.00003 a 19.99996,19.999835 0.00106026 0 1 19.999811,20.00085 v 4.99918 h 30.00024 v -4.9997 -28.575 c -0.0135,-5.2968 2.12154,-10.38281 5.85339,-14.14177 l 12.45298,-12.45351 11.50059,-11.50007 9.71259,-9.7131 11.50059,-11.50059 5.2e-4,5.2e-4 a 49.999581,49.999609 45 0 0 0,-70.710934 z m -72.48498,62.129541 a 5,5 0 0 0 -5.00021,5.000207 5,5 0 0 0 5.00021,4.9997 5,5 0 0 0 5.00022,-4.9997 5,5 0 0 0 -5.00022,-5.000207 z m -29.999716,4.999697 a 24.999794,24.999806 0 0 0 -25.000024,25.00002 24.999794,24.999806 0 0 0 25.000024,25.00003 v -4.9997 A 19.999835,19.99996 0 0 1 64.999965,130.00021 19.999835,19.99996 0 0 1 85.000294,109.99988 Z m 92.669796,48.74534 0.004,0.004 5.1e-4,-5.2e-4 z" />
  </g>
</svg>
