<?xml version="1.0" encoding="UTF-8" standalone="no"?>
<!-- Created with Inkscape (http://www.inkscape.org/) -->

<svg
   width="186mm"
   height="186mm"
   viewBox="0 0 186 186"
   version="1.1"
   id="svg1"
   xmlns="http://www.w3.org/2000/svg"
   xmlns:svg="http://www.w3.org/2000/svg">
  <defs
     id="defs1" />
  <g
     id="layer2"
     style="display:none"
     transform="matrix(1.1,0,0,1.0751947,-19.597664,-20.080602)">
    <path
       id="path1"
       style="fill:#800000;fill-opacity:1;stroke:none;stroke-width:15.8042"
       d="M 81.724939,65.929935 A 50,51.15353 0 0 0 31.81819,117.0837 50,51.15353 0 0 0 81.724939,168.23699 v -9.58604 A 40.909092,41.852882 0 0 1 40.815996,116.79821 40.909092,41.852882 0 0 1 81.724939,74.945479 Z" />
    <path
       id="path3"
       style="fill:#800000;fill-opacity:1;stroke:none;stroke-width:12.6761"
       d="m 81.170312,88.897072 a 27.902239,27.272406 90 0 0 -27.272024,27.902458 27.902239,27.272406 90 0 0 27.139976,27.9015 l 0.04417,-9.30066 A 18.181604,18.601492 1.2836213e-5 0 1 62.989119,116.79905 18.181604,18.601492 1.2836213e-5 0 1 81.17031,98.197731 a 18.181604,18.601492 1.2836213e-5 0 1 0.08879,0 l 0.04416,-9.300178 a 27.902239,27.272406 90 0 0 -0.132948,-4.81e-4 z"
       transform="matrix(1,0,0.00474872,0.99998872,0,0)" />
    <ellipse
       style="fill:#800000;fill-opacity:1;stroke:none;stroke-width:7.36205"
       id="path4"
       cx="109.0909"
       cy="93.832047"
       rx="9.090909"
       ry="9.3006411" />
  </g>
  <g
     id="layer1"
     transform="translate(-14.700009,-24.499992)"
     style="display:none">
    <g
       id="g2"
       style="display:none"
       transform="matrix(1.1,0,0,1.0751947,-4.8976552,4.41939)">
      <ellipse
         style="fill:#800000;fill-opacity:1;stroke:none;stroke-width:15.8042"
         id="ellipse1"
         cx="81.818176"
         cy="117.08365"
         rx="50"
         ry="51.15353" />
      <ellipse
         style="display:inline;fill:#00aad4;fill-opacity:1;stroke:none;stroke-width:12.9307"
         id="ellipse2"
         cx="81.725189"
         cy="116.79821"
         rx="40.909092"
         ry="41.852882" />
    </g>
    <path
       id="path2-7-1"
       style="fill:#000000;fill-opacity:1;stroke-width:32.4791"
       d="m 85.000002,54.999786 a 74.999369,74.999404 0 0 0 -75.00007,75.000074 74.999369,74.999404 0 0 0 75.00007,75.00007 v -5.00021 a 69.999408,69.999452 0 0 1 -70.00038,-69.99986 69.999408,69.999452 0 0 1 70.00038,-69.999862 z" />
    <path
       id="path2-7-1-9"
       style="fill:#000000;fill-opacity:1;stroke-width:21.6527"
       d="m 85.000051,79.999998 a 49.999581,49.999609 0 0 0 -50.00005,50.000052 49.999581,49.999609 0 0 0 50.00005,50.00004 v -5.00021 a 44.999624,44.999651 0 0 1 -44.99984,-44.99983 44.999624,44.999651 0 0 1 44.99984,-44.999842 z" />
    <path
       id="path2-7-1-9-1"
       style="fill:#000000;fill-opacity:1;stroke-width:21.6527"
       d="m 191.02049,112.11649 a 49.999581,49.999609 45 0 0 1e-5,-70.710746 l -3.53569,3.535689 a 44.999624,44.999651 45 0 1 0,63.639377 z" />
    <path
       id="path2-7-8-2"
       style="fill:#000000;fill-opacity:1;stroke-width:10.8264"
       d="m 85.000332,104.99951 a 24.999794,24.999806 0 0 0 -25.00003,25.00003 24.999794,24.999806 0 0 0 25.00003,25.00001 v -4.99969 a 19.999835,19.99996 0 0 1 -20.00033,-19.99981 19.999835,19.99996 0 0 1 20.00033,-20.00033 z" />
    <path
       id="path2-7-8-2-7"
       style="fill:#000000;fill-opacity:1;stroke-width:10.8264"
       d="m 137.98725,94.438999 a 24.999794,24.999806 45 0 0 35.35538,9e-6 24.999794,24.999806 45 0 0 -2e-5,-35.35537 l -3.53531,3.535315 a 19.999835,19.99996 45 0 1 3.6e-4,28.284369 19.999835,19.99996 45 0 1 -28.28473,-6e-6 z" />
    <path
       id="path2-7-8-2-8"
       style="fill:#000000;fill-opacity:1;stroke-width:10.8264"
       d="m 90.000002,175.00029 v 4.9997 a 19.99996,19.999835 0.00106026 0 1 19.999808,20.00084 h 5.00021 a 24.999806,24.999794 0.00106026 0 0 -24.999498,-25.00054 24.999806,24.999794 0.00106026 0 0 -5.2e-4,0 z" />
    <rect
       style="fill:#000000;fill-opacity:1;stroke-width:10.4447"
       id="rect2"
       width="4.9999514"
       height="30"
       x="85.000053"
       y="175" />
    <rect
       style="fill:#000000;fill-opacity:1;stroke-width:10.4447"
       id="rect2-4"
       width="4.9999514"
       height="30"
       x="30.79339"
       y="134.35017"
       transform="rotate(-45)" />
    <rect
       style="fill:#000000;fill-opacity:1;stroke-width:11.0495"
       id="rect2-3"
       width="4.9999514"
       height="33.57515"
       x="135"
       y="171.42485" />
    <rect
       style="fill:#000000;fill-opacity:1;stroke-width:10.4447"
       id="rect2-3-3"
       width="4.9999514"
       height="30"
       x="159.35022"
       y="-105.79361"
       transform="rotate(45)" />
    <path
       id="rect2-3-3-2-6"
       style="fill:#000000;fill-opacity:1;stroke-width:10.4447"
       d="m 209.35003,-55.793349 v 16.26429 13.73567 16.2642907 17.6111826 l 4.99987,3.655e-4 V -9.5294637 l 3.7e-4,-16.2639253 -3.7e-4,-13.736035 v -16.26429 z"
       transform="rotate(45)" />
    <rect
       style="fill:#000000;fill-opacity:1;stroke-width:10.4447"
       id="rect2-9"
       width="30.000004"
       height="5.0000057"
       x="110"
       y="200" />
    <path
       id="path2-7-8-2-83-8-5"
       style="fill:#000000;fill-opacity:1;stroke-width:10.8264"
       d="m 142.31789,153.7479 c -4.68814,4.68827 -7.3178,11.04683 -7.31789,17.67695 h 4.99995 c -0.0135,-5.29681 2.1214,-10.38266 5.85325,-14.14163 z m 35.34989,-0.005 0.006,0.006 3.7e-4,-3.6e-4 -0.006,-0.005 z" />
    <circle
       style="fill:#000000;fill-opacity:1;stroke-width:6.66667"
       id="path5"
       cx="115"
       cy="105"
       r="5" />
    <path
       id="path2-7-1-9-7-2"
       style="fill:#000000;fill-opacity:1;stroke-width:21.6527"
       d="m 85.000002,54.999786 v 5.000212 A 44.999651,44.999624 89.99988 0 1 116.77636,73.22348 l 3.53105,-3.53105 A 49.999609,49.999581 89.99988 0 0 85.000002,54.999786 Z" />
  </g>
  <g
     id="layer4"
     style="display:none"
     transform="translate(-9.699999,-9.4999992)">
    <rect
       style="display:inline;fill:#ffffff;stroke-width:16.8779"
       id="rect1"
       width="205.10233"
       height="205"
       x="-1.0880186e-14"
       y="2.5590641e-14" />
    <path
       id="path2-7-1-3"
       style="display:inline;fill:#dceff8;fill-opacity:1;stroke-width:32.4791"
       d="m 187.48499,37.870432 -21.21317,21.213175 3.5357,3.535185 c 7.81074,7.810441 7.81074,20.47404 0,28.284578 -7.81054,7.81074 -20.47414,7.81074 -28.28458,0 l -21.21317,-21.213175 -0.003,0.0021 C 110.94959,60.309638 98.250734,55.025116 84.999778,54.999619 43.578277,54.99923 9.9993384,88.578171 9.9997044,129.99969 c -3.73e-4,41.42153 33.5785676,75.00047 75.0000736,75.00008 l 5.16e-4,-0.003 v 0.003 h 4.999695 v -25.00003 c 11.046001,8e-5 20.000371,8.95492 19.999811,20.00085 v 4.99918 h 30.00024 v -4.9997 -28.575 c -0.0135,-5.29679 2.12154,-10.38282 5.85339,-14.14177 l 12.45298,-12.45351 11.50059,-11.50007 9.71259,-9.7131 11.50059,-11.50059 5.2e-4,5.2e-4 c 19.52659,-19.526145 19.52659,-51.184813 0,-70.710934 z m -9.8149,115.874578 0.004,0.004 5.2e-4,-5.2e-4 z"
       transform="translate(-5.0000096,-14.999993)" />
    <path
       id="path6"
       style="display:inline;fill:#2078a4;fill-opacity:1;stroke-width:32.4791"
       d="m 187.48499,37.870432 -21.21317,21.213175 3.5357,3.535185 a 19.999835,19.99996 45 0 1 0,28.284578 19.999835,19.99996 45 0 1 -28.28458,0 l -21.21317,-21.213175 -0.003,0.0021 A 49.999609,49.999581 89.99988 0 0 84.999778,54.999619 74.999369,74.999404 0 0 0 9.9997044,129.99969 74.999369,74.999404 0 0 0 84.999778,204.99977 v -5.00022 A 69.999408,69.999452 0 0 1 14.999399,129.99969 69.999408,69.999452 0 0 1 84.999778,59.99983 44.999651,44.999624 89.99988 0 1 116.77613,73.223312 l -0.002,0.0026 21.21317,21.213176 a 24.999794,24.999806 45 0 0 35.35547,0 24.999794,24.999806 45 0 0 0,-35.355465 l 14.14228,-14.142289 a 44.999624,44.999651 45 0 1 0,63.639526 h -5.1e-4 l -11.50059,11.50059 -9.71259,9.71259 -11.50059,11.50059 -12.45298,12.45299 v 5.1e-4 c -4.68814,4.68827 -7.31781,11.04684 -7.3179,17.67696 v 28.575 h -19.99982 a 24.999806,24.999794 0.00106026 0 0 -24.999504,-25.00002 24.999806,24.999794 0.00106026 0 0 -5.17e-4,0 H 85.000294 A 44.999624,44.999651 0 0 1 40.000457,130.00021 44.999624,44.999651 0 0 1 85.000294,85.000371 V 80.00016 a 49.999581,49.999609 0 0 0 -50.000048,50.00005 49.999581,49.999609 0 0 0 50.000048,50.00005 v 24.99951 h 4.999695 v -25.00003 a 19.99996,19.999835 0.00106026 0 1 19.999811,20.00085 v 4.99918 h 30.00024 v -4.9997 -28.575 c -0.0135,-5.29674 2.12111,-10.38282 5.85287,-14.14177 l 12.4535,-12.45351 11.50059,-11.50007 9.71259,-9.7131 11.50059,-11.50059 5.2e-4,5.2e-4 a 49.999581,49.999609 45 0 0 0,-70.710934 z m -72.48498,62.129541 a 5,5 0 0 0 -5.00021,5.000207 5,5 0 0 0 5.00021,4.9997 5,5 0 0 0 5.00022,-4.9997 5,5 0 0 0 -5.00022,-5.000207 z m -29.999716,4.999697 a 24.999794,24.999806 0 0 0 -25.000024,25.00002 24.999794,24.999806 0 0 0 25.000024,25.00003 v -4.9997 A 19.999835,19.99996 0 0 1 64.999965,130.00021 19.999835,19.99996 0 0 1 85.000294,109.99988 Z m 92.669796,48.74534 0.004,0.004 5.1e-4,-5.2e-4 z"
       transform="translate(-5.0000096,-14.999993)" />
  </g>
  <g
     id="g20"
     transform="translate(-14.700009,-24.499992)"
     style="display:inline">
    <rect
       style="display:inline;fill:none;fill-opacity:1;stroke-width:15.3099"
       id="rect3"
       width="186"
       height="186"
       x="9.6999998"
       y="9.5"
       transform="translate(5.0000096,14.999993)" />
    <path
       id="path20"
       style="display:inline;fill:#2078a4;fill-opacity:1;stroke-width:32.4791"
       d="m 187.48499,39.238824 -14.14228,14.142289 a 24.999794,24.999806 44.461093 0 1 0,35.355464 24.999794,24.999806 44.461093 0 1 -35.35547,0 l -21.21317,-21.213175 0.002,-0.0026 A 44.999624,44.999651 0 0 0 84.999778,54.297336 69.999408,69.999452 0 0 0 14.999399,124.2972 69.999408,69.999452 0 0 0 84.999778,194.29706 v 0.82734 h 5.16e-4 v -25.82737 h 4.999695 a 24.999806,24.999794 0 0 0 5.17e-4,0 24.999806,24.999794 0 0 1 24.999504,25.00003 h 19.99982 v -28.575 c 8e-5,-6.63006 2.62976,-12.98869 7.3179,-17.67696 v -5.1e-4 l 12.45298,-12.45299 11.50059,-11.50059 9.71259,-9.71259 11.50059,-11.50059 h 5.1e-4 a 44.999624,44.999651 44.267262 0 0 0,-63.639006 z M 84.999778,69.604412 v 9.693465 A 45.000001,44.999997 0 0 0 39.99994,124.29771 45.000001,44.999997 0 0 0 84.999778,169.29755 v 10.30687 A 55,55.000004 0 0 1 30.102353,124.60467 55,55.000004 0 0 1 84.999778,69.604412 Z m 30.102552,20.00033 a 9.9999999,10 0 0 1 9.99991,9.999906 9.9999999,10 0 0 1 -9.99991,9.999902 9.9999999,10 0 0 1 -9.9999,-9.999902 9.9999999,10 0 0 1 9.9999,-9.999906 z m -30.24828,4.692736 a 30.072788,29.927038 45.000233 0 1 0.146244,5.17e-4 v 9.999385 a 20.048524,19.951358 45.000031 0 0 -0.09767,0 20.048524,19.951358 45.000031 0 0 -19.902144,19.99982 20.048524,19.951358 45.000031 0 0 19.999812,19.99981 v 9.99991 A 30.072788,29.927038 45.000233 0 1 55.000575,124.29771 30.072788,29.927038 45.000233 0 1 84.85405,94.297478 Z m 7.596952,80.163582 c 0.206739,0.0253 0.409184,0.0635 0.613916,0.0951 a 19.99996,19.999835 0 0 0 -0.613916,-0.0951 z m 2.440162,0.46354 c 0.190236,0.0479 0.380926,0.0945 0.568957,0.14779 a 19.99996,19.999835 0 0 0 -0.568957,-0.14779 z m 2.759004,0.89658 c 0.01776,0.007 0.03652,0.0127 0.05426,0.0202 a 19.99996,19.999835 0 0 0 -0.05426,-0.0202 z m 2.225704,1.0971 c 0.155028,0.0883 0.303898,0.18572 0.456308,0.27801 a 19.99996,19.999835 0 0 0 -0.456308,-0.27801 z m 2.007628,1.31878 c 0.17296,0.1282 0.34764,0.25398 0.51625,0.38757 a 19.99996,19.999835 0 0 0 -0.51625,-0.38757 z m 3.82923,3.71088 c 0.13042,0.16571 0.25303,0.33758 0.37827,0.50746 a 19.99996,19.999835 0 0 0 -0.37827,-0.50746 z m 1.4242,2.07636 c 0.0894,0.14875 0.18416,0.2937 0.26975,0.44494 a 19.99996,19.999835 0 0 0 -0.26975,-0.44494 z m 1.341,2.62206 c 0.009,0.0216 0.0154,0.0446 0.0243,0.0662 a 19.99996,19.999835 0 0 0 -0.0243,-0.0662 z m 0.76326,2.24845 c 0.0528,0.18829 0.0989,0.37943 0.14625,0.56999 a 19.99996,19.999835 0 0 0 -0.14625,-0.56999 z m 0.50953,2.40243 c 0.0305,0.20189 0.0681,0.40131 0.0925,0.60513 a 19.99996,19.999835 0 0 0 -0.0925,-0.60513 z" />
  </g>
</svg>
